HIERARCHY
ROOT Hips
{
	OFFSET 0.000000 0.000000 0.000000
	CHANNELS 6 Xposition Yposition Zposition Zrotation Yrotation Xrotation 
	JOINT LHipJoint
	{
		OFFSET 0.000000 0.000000 0.000000
		CHANNELS 3 Zrotation Yrotation Xrotation
		JOINT LeftUpLeg
		{
			OFFSET 1.363060 -1.794630 0.839290
			CHANNELS 3 Zrotation Yrotation Xrotation
			JOINT LeftLeg
			{
				OFFSET 2.448110 -6.726130 0.000000
				CHANNELS 3 Zrotation Yrotation Xrotation
				JOINT LeftFoot
				{
					OFFSET 2.562200 -7.039590 0.000000
					CHANNELS 3 Zrotation Yrotation Xrotation
					JOINT LeftToeBase
					{
						OFFSET 0.157640 -0.433110 2.322550
						CHANNELS 3 Zrotation Yrotation Xrotation
						End Site
						{
							OFFSET 0.000000 0.000000 0.000000
						}
					}
				}
			}
		}
	}
	JOINT RHipJoint
	{
		OFFSET 0.000000 0.000000 0.000000
		CHANNELS 3 Zrotation Yrotation Xrotation
		JOINT RightUpLeg
		{
			OFFSET -1.305520 -1.794630 0.839290
			CHANNELS 3 Zrotation Yrotation Xrotation
			JOINT RightLeg
			{
				OFFSET -2.542530 -6.985550 0.000000
				CHANNELS 3 Zrotation Yrotation Xrotation
				JOINT RightFoot
				{
					OFFSET -2.568260 -7.056230 0.000000
					CHANNELS 3 Zrotation Yrotation Xrotation
					JOINT RightToeBase
					{
						OFFSET -0.164730 -0.452590 2.363150
						CHANNELS 3 Zrotation Yrotation Xrotation
						End Site
						{
							OFFSET 0.000000 0.000000 0.000000
						}
					}
				}
			}
		}
	}
	JOINT LowerBack
	{
		OFFSET 0.000000 0.000000 0.000000
		CHANNELS 3 Zrotation Yrotation Xrotation
		JOINT Spine
		{
			OFFSET 0.028270 2.035590 -0.193380
			CHANNELS 3 Zrotation Yrotation Xrotation
			JOINT Spine1
			{
				OFFSET 0.056720 2.048850 -0.042750
				CHANNELS 3 Zrotation Yrotation Xrotation
				JOINT Neck
				{
					OFFSET 0.000000 0.000000 0.000000
					CHANNELS 3 Zrotation Yrotation Xrotation
					JOINT Neck1
					{
						OFFSET -0.054170 1.746240 0.172020
						CHANNELS 3 Zrotation Yrotation Xrotation
						JOINT Head
						{
							OFFSET 0.104070 1.761360 -0.123970
							CHANNELS 3 Zrotation Yrotation Xrotation
							End Site
							{
								OFFSET 0.000000 0.000000 0.000000
							}
						}
					}
				}
				JOINT LeftShoulder
				{
					OFFSET 0.000000 0.000000 0.000000
					CHANNELS 3 Zrotation Yrotation Xrotation
					JOINT LeftArm
					{
						OFFSET 3.362410 1.200890 -0.311210
						CHANNELS 3 Zrotation Yrotation Xrotation
						JOINT LeftForeArm
						{
							OFFSET 4.983000 -0.000000 -0.000000
							CHANNELS 3 Zrotation Yrotation Xrotation
							JOINT LeftHand
							{
								OFFSET 3.483560 -0.000000 -0.000000
								CHANNELS 3 Zrotation Yrotation Xrotation
								JOINT LeftFingerBase
								{
									OFFSET 0.000000 0.000000 0.000000
									CHANNELS 3 Zrotation Yrotation Xrotation
									JOINT LeftHandIndex1
									{
										OFFSET 0.715260 -0.000000 -0.000000
										CHANNELS 3 Zrotation Yrotation Xrotation
										End Site
										{
											OFFSET 0.000000 0.000000 0.000000
										}
									}
								}
								JOINT LThumb
								{
									OFFSET 0.000000 0.000000 0.000000
									CHANNELS 3 Zrotation Yrotation Xrotation
									End Site
									{
										OFFSET 0.000000 0.000000 0.000000
									}
								}
							}
						}
					}
				}
				JOINT RightShoulder
				{
					OFFSET 0.000000 0.000000 0.000000
					CHANNELS 3 Zrotation Yrotation Xrotation
					JOINT RightArm
					{
						OFFSET -3.136600 1.374050 -0.404650
						CHANNELS 3 Zrotation Yrotation Xrotation
						JOINT RightForeArm
						{
							OFFSET -5.241900 -0.000000 -0.000000
							CHANNELS 3 Zrotation Yrotation Xrotation
							JOINT RightHand
							{
								OFFSET -3.444170 -0.000000 -0.000000
								CHANNELS 3 Zrotation Yrotation Xrotation
								JOINT RightFingerBase
								{
									OFFSET 0.000000 0.000000 0.000000
									CHANNELS 3 Zrotation Yrotation Xrotation
									JOINT RightHandIndex1
									{
										OFFSET -0.622530 -0.000000 -0.000000
										CHANNELS 3 Zrotation Yrotation Xrotation
										End Site
										{
											OFFSET 0.000000 0.000000 0.000000
										}
									}
								}
								JOINT RThumb
								{
									OFFSET 0.000000 0.000000 0.000000
									CHANNELS 3 Zrotation Yrotation Xrotation
									End Site
									{
										OFFSET 0.000000 0.000000 0.000000
									}
								}
							}
						}
					}
				}
			}
		}
	}
}
MOTION
Frames: 8
Frame Time: 0.008333
-1.772508 16.252621 -3.931503 35.371180 32.924106 2.089003 72.800557 -81.161540 -35.509233 15.771271 -33.436643 52.437786 -61.259352 -37.529260 -112.030243 -68.630515 -4.963101 -69.491315 0.000000 0.000000 0.000000 -24.601545 -14.758538 -9.863067 18.113712 -9.783149 14.279433 -3.035075 -13.547970 25.210835 6.156752 9.399743 -45.045011 0.000000 0.000000 0.000000 -8.301263 6.548621 9.281693 0.398585 0.545645 -8.124289 -19.831995 6.658467 -1.576832 -4.957956 -0.830835 -4.103105 0.000000 0.000000 0.000000 0.000000 0.000000 0.000000 2.341445 1.389190 6.016837 -64.270678 -60.877889 53.667711 99.927469 -52.957158 -0.000000 0.000000 0.000000 0.000000 0.000000 0.000000 0.000000 0.000000 0.000000 0.000000 0.000000 0.000000 0.000000 -13.899836 6.042117 -12.267520 61.303720 54.252946 1.739154 5.988306 -2.151102 0.000000 0.000000 0.000000 0.000000 0.000000 0.000000 0.000000 0.000000 0.000000 0.000000 0.000000 0.000000 0.000000 
-1.773269 16.252423 -3.939822 34.890547 33.040188 1.964969 71.806998 -80.105272 -35.081235 15.545603 -34.204559 52.511055 -61.629633 -37.575659 -111.149005 -68.603123 -4.876223 -69.456279 0.000000 0.000000 0.000000 -24.334604 -14.878454 -9.819817 18.284836 -9.795845 14.136911 -3.028094 -13.544456 25.233406 6.135002 9.405406 -45.017026 0.000000 0.000000 0.000000 -7.988147 6.424734 9.244650 0.458090 0.542783 -8.173389 -19.858436 6.645451 -1.596036 -4.967112 -0.826014 -4.105628 0.000000 0.000000 0.000000 0.000000 0.000000 0.000000 2.323672 1.364948 6.018314 -64.290189 -60.848514 53.523362 99.759839 -53.176786 -0.000000 0.000000 0.000000 0.000000 0.000000 0.000000 0.000000 0.000000 0.000000 0.000000 0.000000 0.000000 0.000000 -13.914971 6.022959 -12.276629 61.250648 54.205630 1.710699 5.956872 -2.098895 0.000000 0.000000 0.000000 0.000000 0.000000 0.000000 0.000000 0.000000 0.000000 0.000000 0.000000 0.000000 0.000000 
-1.772876 16.252529 -3.948815 34.515765 33.082392 1.834888 71.047741 -79.286049 -34.798235 15.362735 -34.777216 52.545787 -61.979883 -37.623651 -110.394388 -68.559560 -4.778449 -69.406803 0.000000 0.000000 0.000000 -24.142114 -14.962881 -9.781680 18.426607 -9.786110 14.029706 -3.032369 -13.520216 25.263643 6.107059 9.431802 -45.000907 0.000000 0.000000 0.000000 -7.757716 6.348926 9.251449 0.502800 0.546333 -8.210260 -19.867476 6.642587 -1.618133 -4.975676 -0.820758 -4.103870 0.000000 0.000000 0.000000 0.000000 0.000000 0.000000 2.314041 1.345615 6.010767 -64.334614 -60.814332 53.415371 99.602276 -53.361328 -0.000000 0.000000 0.000000 0.000000 0.000000 0.000000 0.000000 0.000000 0.000000 0.000000 0.000000 0.000000 0.000000 -13.921964 6.012462 -12.284184 61.160701 54.155229 1.675255 5.914394 -2.033372 0.000000 0.000000 0.000000 0.000000 0.000000 0.000000 0.000000 0.000000 0.000000 0.000000 0.000000 0.000000 0.000000 
-1.771236 16.252965 -3.958537 34.255171 33.056155 1.705685 70.548348 -78.731535 -34.664846 15.229796 -35.127069 52.536546 -62.304588 -37.675938 -109.785088 -68.498624 -4.667895 -69.338847 0.000000 0.000000 0.000000 -24.030806 -15.015789 -9.747625 18.538452 -9.754416 13.958131 -3.047136 -13.475135 25.301141 6.072940 9.479830 -44.998173 0.000000 0.000000 0.000000 -7.615862 6.321547 9.301682 0.531711 0.553437 -8.234976 -19.857685 6.647660 -1.642288 -4.983570 -0.815045 -4.097135 0.000000 0.000000 0.000000 0.000000 0.000000 0.000000 2.313301 1.330120 5.994138 -64.406359 -60.775105 53.347246 99.456334 -53.508078 -0.000000 0.000000 0.000000 0.000000 0.000000 0.000000 0.000000 0.000000 0.000000 0.000000 0.000000 0.000000 0.000000 -13.920132 6.009875 -12.289776 61.031581 54.100547 1.632396 5.859895 -1.953590 0.000000 0.000000 0.000000 0.000000 0.000000 0.000000 0.000000 0.000000 0.000000 0.000000 0.000000 0.000000 0.000000 
-1.769596 16.253401 -3.968258 33.993151 33.026641 1.572338 70.042329 -78.166970 -34.532508 15.091125 -35.486489 52.527762 -62.631385 -37.723080 -109.168210 -68.437057 -4.557981 -69.273278 0.000000 0.000000 0.000000 -23.918062 -15.067169 -9.712141 18.649750 -9.721831 13.887462 -3.062498 -13.429466 25.339006 6.038734 9.528007 -44.995064 0.000000 0.000000 0.000000 -7.472868 6.294206 9.354475 0.560949 0.561885 -8.258885 -19.847887 6.653923 -1.666779 -4.991482 -0.809325 -4.090628 0.000000 0.000000 0.000000 0.000000 0.000000 0.000000 2.312529 1.315000 5.977272 -64.477664 -60.735948 53.278465 99.309000 -53.654293 -0.000000 0.000000 0.000000 0.000000 0.000000 0.000000 0.000000 0.000000 0.000000 0.000000 0.000000 0.000000 0.000000 -13.918255 6.008142 -12.295439 60.901842 54.045928 1.589904 5.805228 -1.873821 0.000000 0.000000 0.000000 0.000000 0.000000 0.000000 0.000000 0.000000 0.000000 0.000000 0.000000 0.000000 0.000000 
-1.767956 16.253837 -3.977979 33.729808 32.993744 1.434721 69.529789 -77.592252 -34.401400 14.946619 -35.855490 52.519375 -62.960234 -37.764972 -108.543630 -68.374851 -4.448717 -69.210188 0.000000 0.000000 0.000000 -23.803931 -15.116978 -9.675155 18.760433 -9.688336 13.817784 -3.078478 -13.383187 25.377249 6.004431 9.576343 -44.991572 0.000000 0.000000 0.000000 -7.328785 6.266934 9.409977 0.590504 0.571698 -8.281929 -19.838078 6.661398 -1.691612 -4.999411 -0.803597 -4.084344 0.000000 0.000000 0.000000 0.000000 0.000000 0.000000 2.311728 1.300258 5.960160 -64.548511 -60.696863 53.209014 99.160258 -53.799954 -0.000000 0.000000 0.000000 0.000000 0.000000 0.000000 0.000000 0.000000 0.000000 0.000000 0.000000 0.000000 0.000000 -13.916333 6.007283 -12.301181 60.771464 53.991378 1.547781 5.750388 -1.794070 0.000000 0.000000 0.000000 0.000000 0.000000 0.000000 0.000000 0.000000 0.000000 0.000000 0.000000 0.000000 0.000000 
-1.764859 16.254622 -3.987951 33.522365 32.925992 1.295256 69.147671 -77.147704 -34.343888 14.832678 -36.107069 52.474278 -63.328631 -37.826741 -107.965216 -68.277442 -4.301220 -69.097662 0.000000 0.000000 0.000000 -23.732126 -15.150940 -9.637573 18.854990 -9.645748 13.769476 -3.098654 -13.323228 25.414900 5.965276 9.639071 -44.996232 0.000000 0.000000 0.000000 -7.227816 6.261621 9.486686 0.612355 0.582326 -8.299078 -19.813928 6.670945 -1.719586 -5.006338 -0.798116 -4.073142 0.000000 0.000000 0.000000 0.000000 0.000000 0.000000 2.318140 1.287841 5.934880 -64.636677 -60.647437 53.160259 99.023002 -53.930570 -0.000000 0.000000 0.000000 0.000000 0.000000 0.000000 0.000000 0.000000 0.000000 0.000000 0.000000 0.000000 0.000000 -13.909352 6.009758 -12.305790 60.619568 53.936096 1.500901 5.685495 -1.702517 0.000000 0.000000 0.000000 0.000000 0.000000 0.000000 0.000000 0.000000 0.000000 0.000000 0.000000 0.000000 0.000000 
-1.759919 16.255850 -3.998238 33.385648 32.817958 1.156474 68.933432 -76.872378 -34.377143 14.760426 -36.205007 52.381975 -63.744359 -37.914344 -107.449348 -68.136196 -4.106660 -68.923014 0.000000 0.000000 0.000000 -23.714225 -15.166882 -9.599664 18.929915 -9.592515 13.747093 -3.123532 -13.246557 25.451428 5.920142 9.719751 -45.011466 0.000000 0.000000 0.000000 -7.181337 6.283371 9.588144 0.624409 0.592785 -8.309423 -19.771612 6.682056 -1.751193 -5.012008 -0.792962 -4.055603 0.000000 0.000000 0.000000 0.000000 0.000000 0.000000 2.333693 1.277904 5.899434 -64.746994 -60.584873 53.137987 98.900838 -54.042483 -0.000000 0.000000 0.000000 0.000000 0.000000 0.000000 0.000000 0.000000 0.000000 0.000000 0.000000 0.000000 0.000000 -13.895928 6.015939 -12.308921 60.440675 53.879439 1.448089 5.607888 -1.596053 0.000000 0.000000 0.000000 0.000000 0.000000 0.000000 0.000000 0.000000 0.000000 0.000000 0.000000 0.000000 0.000000 
